# xmcd
#
# Track frame offsets: 
#        182
#        14927
#        26175
#        47175
#        68332
#        84212
#        100007
#        118155
#        132052
#        145525
#        161535
#        176587
#        196335
#        212492
#        228220
#        242675
#        259230
#        277127
#        294622
#        319547
#
# Disc length: 4528 seconds
#
# Revision: 9
# Processed by: cddbd v1.5.2PL0 Copyright (c) Steve Scherf et al.
# Submitted via: ExactAudioCopyFreeDBPlugin 1.0
#
DISCID=1a11ae14
DTITLE=Aretha Franklin - Queen of Soul:  The Atlantic Recordings (1967
DTITLE=1976) [box set]
DYEAR=1992
DGENRE=Soul
TTITLE0=Son of a Preacher Man
TTITLE1=Try Matty's
TTITLE2=The Thrill is Gone (From Yesterday's Kiss)
TTITLE3=Dark End of the Street
TTITLE4=You and Me
TTITLE5=Let it Be
TTITLE6=Spirit in the Dark
TTITLE7=Why I Sing the Blues
TTITLE8=Don't Play That Song
TTITLE9=Young, Gifted and Black
TTITLE10=Border Song (Holy Moses)
TTITLE11=A Brand New Me
TTITLE12=You're All I Need to Get By
TTITLE13=Spanish Harlem
TTITLE14=Rock Steady
TTITLE15=Oh Me Oh My (I'm a Fool for You Baby)
TTITLE16=Day Dreaming
TTITLE17=All the King's Horses
TTITLE18=Bridge Over Troubled Water
TTITLE19=Angel
EXTD=
EXTT0=
EXTT1=
EXTT2=
EXTT3=
EXTT4=
EXTT5=
EXTT6=
EXTT7=
EXTT8=
EXTT9=
EXTT10=
EXTT11=
EXTT12=
EXTT13=
EXTT14=
EXTT15=
EXTT16=
EXTT17=
EXTT18=
EXTT19=
PLAYORDER=
